<mxfile host="app.diagrams.net" modified="2023-11-01T23:14:35.832Z" agent="Mozilla/5.0 (Windows NT 10.0; Win64; x64) AppleWebKit/537.36 (KHTML, like Gecko) Chrome/118.0.0.0 Safari/537.36" etag="bQKSBiLZoEQj978-NRR1" version="22.0.8" type="onedrive">
  <diagram id="C5RBs43oDa-KdzZeNtuy" name="Page-1">
    <mxGraphModel grid="1" page="1" gridSize="10" guides="1" tooltips="1" connect="1" arrows="1" fold="1" pageScale="1" pageWidth="827" pageHeight="1169" math="0" shadow="0">
      <root>
        <mxCell id="WIyWlLk6GJQsqaUBKTNV-0" />
        <mxCell id="WIyWlLk6GJQsqaUBKTNV-1" parent="WIyWlLk6GJQsqaUBKTNV-0" />
        <mxCell id="WIyWlLk6GJQsqaUBKTNV-3" value="start" style="rounded=1;whiteSpace=wrap;html=1;fontSize=12;glass=0;strokeWidth=1;shadow=0;" vertex="1" parent="WIyWlLk6GJQsqaUBKTNV-1">
          <mxGeometry x="184" y="20" width="120" height="30" as="geometry" />
        </mxCell>
        <mxCell id="TI4QEEks9tS9gaaD0Dst-12" value="" style="edgeStyle=orthogonalEdgeStyle;rounded=0;orthogonalLoop=1;jettySize=auto;html=1;" edge="1" parent="WIyWlLk6GJQsqaUBKTNV-1" source="TI4QEEks9tS9gaaD0Dst-0" target="TI4QEEks9tS9gaaD0Dst-11">
          <mxGeometry relative="1" as="geometry" />
        </mxCell>
        <mxCell id="TI4QEEks9tS9gaaD0Dst-0" value="input player&lt;br&gt;&amp;nbsp;1 name" style="shape=parallelogram;perimeter=parallelogramPerimeter;whiteSpace=wrap;html=1;fixedSize=1;" vertex="1" parent="WIyWlLk6GJQsqaUBKTNV-1">
          <mxGeometry x="185" y="67" width="117" height="50" as="geometry" />
        </mxCell>
        <mxCell id="TI4QEEks9tS9gaaD0Dst-32" value="" style="edgeStyle=orthogonalEdgeStyle;rounded=0;orthogonalLoop=1;jettySize=auto;html=1;entryX=0;entryY=0.5;entryDx=0;entryDy=0;exitX=0.5;exitY=1;exitDx=0;exitDy=0;" edge="1" parent="WIyWlLk6GJQsqaUBKTNV-1" source="TI4QEEks9tS9gaaD0Dst-6" target="TI4QEEks9tS9gaaD0Dst-40">
          <mxGeometry relative="1" as="geometry">
            <mxPoint x="244.5" y="844" as="targetPoint" />
            <Array as="points">
              <mxPoint x="244" y="920" />
              <mxPoint x="330" y="920" />
            </Array>
          </mxGeometry>
        </mxCell>
        <mxCell id="TI4QEEks9tS9gaaD0Dst-6" value="display blank&lt;br&gt;board" style="rounded=1;whiteSpace=wrap;html=1;absoluteArcSize=1;arcSize=14;strokeWidth=2;" vertex="1" parent="WIyWlLk6GJQsqaUBKTNV-1">
          <mxGeometry x="179" y="774" width="130" height="40" as="geometry" />
        </mxCell>
        <mxCell id="TI4QEEks9tS9gaaD0Dst-19" value="" style="edgeStyle=orthogonalEdgeStyle;rounded=0;orthogonalLoop=1;jettySize=auto;html=1;" edge="1" parent="WIyWlLk6GJQsqaUBKTNV-1" source="TI4QEEks9tS9gaaD0Dst-11" target="TI4QEEks9tS9gaaD0Dst-18">
          <mxGeometry relative="1" as="geometry" />
        </mxCell>
        <mxCell id="TI4QEEks9tS9gaaD0Dst-11" value="was name length &amp;gt; 0 ?" style="rhombus;whiteSpace=wrap;html=1;" vertex="1" parent="WIyWlLk6GJQsqaUBKTNV-1">
          <mxGeometry x="169" y="137" width="150" height="135" as="geometry" />
        </mxCell>
        <mxCell id="TI4QEEks9tS9gaaD0Dst-13" value="Yes" style="text;html=1;strokeColor=none;fillColor=none;align=center;verticalAlign=middle;whiteSpace=wrap;rounded=0;" vertex="1" parent="WIyWlLk6GJQsqaUBKTNV-1">
          <mxGeometry x="240" y="305" width="60" height="30" as="geometry" />
        </mxCell>
        <mxCell id="TI4QEEks9tS9gaaD0Dst-15" value="No" style="text;html=1;strokeColor=none;fillColor=none;align=center;verticalAlign=middle;whiteSpace=wrap;rounded=0;" vertex="1" parent="WIyWlLk6GJQsqaUBKTNV-1">
          <mxGeometry x="90" y="170" width="60" height="30" as="geometry" />
        </mxCell>
        <mxCell id="TI4QEEks9tS9gaaD0Dst-17" value="" style="endArrow=classic;html=1;rounded=0;exitX=0;exitY=0.5;exitDx=0;exitDy=0;entryX=0;entryY=0.5;entryDx=0;entryDy=0;" edge="1" parent="WIyWlLk6GJQsqaUBKTNV-1" source="TI4QEEks9tS9gaaD0Dst-11" target="TI4QEEks9tS9gaaD0Dst-0">
          <mxGeometry width="50" height="50" relative="1" as="geometry">
            <mxPoint x="310" y="280" as="sourcePoint" />
            <mxPoint x="360" y="230" as="targetPoint" />
            <Array as="points">
              <mxPoint x="80" y="205" />
              <mxPoint x="80" y="92" />
            </Array>
          </mxGeometry>
        </mxCell>
        <mxCell id="TI4QEEks9tS9gaaD0Dst-22" value="" style="edgeStyle=orthogonalEdgeStyle;rounded=0;orthogonalLoop=1;jettySize=auto;html=1;" edge="1" parent="WIyWlLk6GJQsqaUBKTNV-1" source="TI4QEEks9tS9gaaD0Dst-18" target="TI4QEEks9tS9gaaD0Dst-21">
          <mxGeometry relative="1" as="geometry" />
        </mxCell>
        <mxCell id="TI4QEEks9tS9gaaD0Dst-18" value="input player&lt;br&gt;&amp;nbsp;2 name" style="shape=parallelogram;perimeter=parallelogramPerimeter;whiteSpace=wrap;html=1;fixedSize=1;" vertex="1" parent="WIyWlLk6GJQsqaUBKTNV-1">
          <mxGeometry x="184" y="291" width="120" height="60" as="geometry" />
        </mxCell>
        <mxCell id="BwXsAqAlFmVmbOzfPT53-0" style="edgeStyle=orthogonalEdgeStyle;rounded=0;orthogonalLoop=1;jettySize=auto;html=1;exitX=0.5;exitY=1;exitDx=0;exitDy=0;entryX=0.5;entryY=0;entryDx=0;entryDy=0;" edge="1" parent="WIyWlLk6GJQsqaUBKTNV-1" source="TI4QEEks9tS9gaaD0Dst-21" target="TI4QEEks9tS9gaaD0Dst-6">
          <mxGeometry relative="1" as="geometry" />
        </mxCell>
        <mxCell id="TI4QEEks9tS9gaaD0Dst-21" value="was name length &amp;gt; 0 ?" style="rhombus;whiteSpace=wrap;html=1;" vertex="1" parent="WIyWlLk6GJQsqaUBKTNV-1">
          <mxGeometry x="169" y="372" width="150" height="135" as="geometry" />
        </mxCell>
        <mxCell id="TI4QEEks9tS9gaaD0Dst-23" value="" style="endArrow=classic;html=1;rounded=0;exitX=0;exitY=0.5;exitDx=0;exitDy=0;entryX=0;entryY=0.5;entryDx=0;entryDy=0;" edge="1" parent="WIyWlLk6GJQsqaUBKTNV-1">
          <mxGeometry width="50" height="50" relative="1" as="geometry">
            <mxPoint x="169" y="438.5000000000001" as="sourcePoint" />
            <mxPoint x="194" y="320" as="targetPoint" />
            <Array as="points">
              <mxPoint x="80" y="440" />
              <mxPoint x="80" y="320" />
            </Array>
          </mxGeometry>
        </mxCell>
        <mxCell id="TI4QEEks9tS9gaaD0Dst-24" value="No" style="text;html=1;strokeColor=none;fillColor=none;align=center;verticalAlign=middle;whiteSpace=wrap;rounded=0;" vertex="1" parent="WIyWlLk6GJQsqaUBKTNV-1">
          <mxGeometry x="90" y="410" width="60" height="30" as="geometry" />
        </mxCell>
        <mxCell id="TI4QEEks9tS9gaaD0Dst-49" value="" style="edgeStyle=orthogonalEdgeStyle;rounded=0;orthogonalLoop=1;jettySize=auto;html=1;" edge="1" parent="WIyWlLk6GJQsqaUBKTNV-1" source="TI4QEEks9tS9gaaD0Dst-40" target="TI4QEEks9tS9gaaD0Dst-48">
          <mxGeometry relative="1" as="geometry" />
        </mxCell>
        <mxCell id="TI4QEEks9tS9gaaD0Dst-40" value="player 1 inputs&lt;br&gt;&#39;x&#39; or &#39;o&#39;" style="shape=parallelogram;perimeter=parallelogramPerimeter;whiteSpace=wrap;html=1;fixedSize=1;strokeWidth=2;" vertex="1" parent="WIyWlLk6GJQsqaUBKTNV-1">
          <mxGeometry x="319.5" y="920" width="120" height="60" as="geometry" />
        </mxCell>
        <mxCell id="TI4QEEks9tS9gaaD0Dst-54" value="" style="edgeStyle=orthogonalEdgeStyle;rounded=0;orthogonalLoop=1;jettySize=auto;html=1;" edge="1" parent="WIyWlLk6GJQsqaUBKTNV-1" source="TI4QEEks9tS9gaaD0Dst-48" target="TI4QEEks9tS9gaaD0Dst-53">
          <mxGeometry relative="1" as="geometry" />
        </mxCell>
        <mxCell id="TI4QEEks9tS9gaaD0Dst-48" value="player chooses&lt;br&gt;square" style="rounded=1;whiteSpace=wrap;html=1;strokeWidth=2;" vertex="1" parent="WIyWlLk6GJQsqaUBKTNV-1">
          <mxGeometry x="319" y="840" width="120" height="60" as="geometry" />
        </mxCell>
        <mxCell id="TI4QEEks9tS9gaaD0Dst-55" style="edgeStyle=orthogonalEdgeStyle;rounded=0;orthogonalLoop=1;jettySize=auto;html=1;exitX=1;exitY=0.5;exitDx=0;exitDy=0;exitPerimeter=0;" edge="1" parent="WIyWlLk6GJQsqaUBKTNV-1" source="TI4QEEks9tS9gaaD0Dst-53">
          <mxGeometry relative="1" as="geometry">
            <mxPoint x="440" y="880" as="targetPoint" />
            <Array as="points">
              <mxPoint x="450" y="760" />
              <mxPoint x="450" y="880" />
            </Array>
          </mxGeometry>
        </mxCell>
        <mxCell id="TI4QEEks9tS9gaaD0Dst-53" value="is square&lt;br&gt;empty" style="strokeWidth=2;html=1;shape=mxgraph.flowchart.decision;whiteSpace=wrap;" vertex="1" parent="WIyWlLk6GJQsqaUBKTNV-1">
          <mxGeometry x="330" y="710" width="100" height="100" as="geometry" />
        </mxCell>
        <mxCell id="TI4QEEks9tS9gaaD0Dst-56" value="No" style="text;html=1;strokeColor=none;fillColor=none;align=center;verticalAlign=middle;whiteSpace=wrap;rounded=0;" vertex="1" parent="WIyWlLk6GJQsqaUBKTNV-1">
          <mxGeometry x="400" y="793" width="60" height="30" as="geometry" />
        </mxCell>
        <mxCell id="TI4QEEks9tS9gaaD0Dst-72" value="" style="edgeStyle=orthogonalEdgeStyle;rounded=0;orthogonalLoop=1;jettySize=auto;html=1;" edge="1" parent="WIyWlLk6GJQsqaUBKTNV-1">
          <mxGeometry relative="1" as="geometry">
            <mxPoint x="540" y="620" as="sourcePoint" />
            <mxPoint x="540" y="620" as="targetPoint" />
          </mxGeometry>
        </mxCell>
        <mxCell id="TI4QEEks9tS9gaaD0Dst-65" value="Yes" style="text;html=1;strokeColor=none;fillColor=none;align=center;verticalAlign=middle;whiteSpace=wrap;rounded=0;" vertex="1" parent="WIyWlLk6GJQsqaUBKTNV-1">
          <mxGeometry x="390" y="680" width="60" height="30" as="geometry" />
        </mxCell>
        <mxCell id="TI4QEEks9tS9gaaD0Dst-67" value="" style="endArrow=classic;html=1;rounded=0;exitX=0.5;exitY=1;exitDx=0;exitDy=0;entryX=0.5;entryY=0;entryDx=0;entryDy=0;" edge="1" parent="WIyWlLk6GJQsqaUBKTNV-1" source="WIyWlLk6GJQsqaUBKTNV-3" target="TI4QEEks9tS9gaaD0Dst-0">
          <mxGeometry width="50" height="50" relative="1" as="geometry">
            <mxPoint x="490" y="260" as="sourcePoint" />
            <mxPoint x="540" y="210" as="targetPoint" />
          </mxGeometry>
        </mxCell>
        <mxCell id="TI4QEEks9tS9gaaD0Dst-70" value="" style="endArrow=classic;html=1;rounded=0;exitX=0.5;exitY=0;exitDx=0;exitDy=0;exitPerimeter=0;" edge="1" parent="WIyWlLk6GJQsqaUBKTNV-1" source="TI4QEEks9tS9gaaD0Dst-53">
          <mxGeometry width="50" height="50" relative="1" as="geometry">
            <mxPoint x="490" y="860" as="sourcePoint" />
            <mxPoint x="460" y="710" as="targetPoint" />
          </mxGeometry>
        </mxCell>
        <mxCell id="TI4QEEks9tS9gaaD0Dst-90" value="" style="edgeStyle=orthogonalEdgeStyle;rounded=0;orthogonalLoop=1;jettySize=auto;html=1;" edge="1" parent="WIyWlLk6GJQsqaUBKTNV-1" source="TI4QEEks9tS9gaaD0Dst-75" target="TI4QEEks9tS9gaaD0Dst-88">
          <mxGeometry relative="1" as="geometry" />
        </mxCell>
        <mxCell id="TI4QEEks9tS9gaaD0Dst-75" value="has a player&lt;br&gt;got 3 in a&amp;nbsp;&lt;br&gt;row" style="strokeWidth=2;html=1;shape=mxgraph.flowchart.decision;whiteSpace=wrap;" vertex="1" parent="WIyWlLk6GJQsqaUBKTNV-1">
          <mxGeometry x="505" y="570" width="110" height="110" as="geometry" />
        </mxCell>
        <mxCell id="TI4QEEks9tS9gaaD0Dst-110" value="" style="edgeStyle=orthogonalEdgeStyle;rounded=0;orthogonalLoop=1;jettySize=auto;html=1;entryX=0;entryY=0.25;entryDx=0;entryDy=0;" edge="1" parent="WIyWlLk6GJQsqaUBKTNV-1" source="TI4QEEks9tS9gaaD0Dst-88" target="TI4QEEks9tS9gaaD0Dst-48">
          <mxGeometry relative="1" as="geometry">
            <mxPoint x="440" y="555" as="targetPoint" />
            <Array as="points">
              <mxPoint x="319" y="485" />
            </Array>
          </mxGeometry>
        </mxCell>
        <mxCell id="TI4QEEks9tS9gaaD0Dst-116" value="" style="edgeStyle=orthogonalEdgeStyle;rounded=0;orthogonalLoop=1;jettySize=auto;html=1;" edge="1" parent="WIyWlLk6GJQsqaUBKTNV-1" source="TI4QEEks9tS9gaaD0Dst-88" target="TI4QEEks9tS9gaaD0Dst-115">
          <mxGeometry relative="1" as="geometry" />
        </mxCell>
        <mxCell id="TI4QEEks9tS9gaaD0Dst-88" value="has all 9&lt;br&gt;squares&lt;br&gt;filled" style="strokeWidth=2;html=1;shape=mxgraph.flowchart.decision;whiteSpace=wrap;" vertex="1" parent="WIyWlLk6GJQsqaUBKTNV-1">
          <mxGeometry x="505" y="430" width="110" height="110" as="geometry" />
        </mxCell>
        <mxCell id="TI4QEEks9tS9gaaD0Dst-91" value="" style="endArrow=classic;html=1;rounded=0;" edge="1" parent="WIyWlLk6GJQsqaUBKTNV-1">
          <mxGeometry width="50" height="50" relative="1" as="geometry">
            <mxPoint x="615" y="624.6800000000001" as="sourcePoint" />
            <mxPoint x="695" y="624.6800000000001" as="targetPoint" />
          </mxGeometry>
        </mxCell>
        <mxCell id="TI4QEEks9tS9gaaD0Dst-92" value="No" style="text;html=1;strokeColor=none;fillColor=none;align=center;verticalAlign=middle;whiteSpace=wrap;rounded=0;" vertex="1" parent="WIyWlLk6GJQsqaUBKTNV-1">
          <mxGeometry x="510" y="540" width="60" height="30" as="geometry" />
        </mxCell>
        <mxCell id="TI4QEEks9tS9gaaD0Dst-93" value="Yes" style="text;html=1;strokeColor=none;fillColor=none;align=center;verticalAlign=middle;whiteSpace=wrap;rounded=0;" vertex="1" parent="WIyWlLk6GJQsqaUBKTNV-1">
          <mxGeometry x="610" y="585" width="60" height="30" as="geometry" />
        </mxCell>
        <mxCell id="BwXsAqAlFmVmbOzfPT53-2" style="edgeStyle=orthogonalEdgeStyle;rounded=0;orthogonalLoop=1;jettySize=auto;html=1;exitX=0.5;exitY=0;exitDx=0;exitDy=0;entryX=0.5;entryY=1;entryDx=0;entryDy=0;" edge="1" parent="WIyWlLk6GJQsqaUBKTNV-1" source="TI4QEEks9tS9gaaD0Dst-95" target="TI4QEEks9tS9gaaD0Dst-104">
          <mxGeometry relative="1" as="geometry" />
        </mxCell>
        <mxCell id="TI4QEEks9tS9gaaD0Dst-95" value="output winners&lt;br&gt;name" style="rounded=1;whiteSpace=wrap;html=1;" vertex="1" parent="WIyWlLk6GJQsqaUBKTNV-1">
          <mxGeometry x="695" y="595" width="120" height="60" as="geometry" />
        </mxCell>
        <mxCell id="TI4QEEks9tS9gaaD0Dst-102" value="end" style="strokeWidth=2;html=1;shape=mxgraph.flowchart.terminator;whiteSpace=wrap;" vertex="1" parent="WIyWlLk6GJQsqaUBKTNV-1">
          <mxGeometry x="590" y="104" width="100" height="60" as="geometry" />
        </mxCell>
        <mxCell id="TI4QEEks9tS9gaaD0Dst-106" value="" style="edgeStyle=orthogonalEdgeStyle;rounded=0;orthogonalLoop=1;jettySize=auto;html=1;" edge="1" parent="WIyWlLk6GJQsqaUBKTNV-1" source="TI4QEEks9tS9gaaD0Dst-104" target="TI4QEEks9tS9gaaD0Dst-102">
          <mxGeometry relative="1" as="geometry" />
        </mxCell>
        <mxCell id="TI4QEEks9tS9gaaD0Dst-104" value="output thanks&lt;br&gt;for playing and congratulate&lt;br&gt;overall winner" style="rounded=1;whiteSpace=wrap;html=1;absoluteArcSize=1;arcSize=14;strokeWidth=2;" vertex="1" parent="WIyWlLk6GJQsqaUBKTNV-1">
          <mxGeometry x="590" y="200" width="100" height="100" as="geometry" />
        </mxCell>
        <mxCell id="TI4QEEks9tS9gaaD0Dst-111" value="No" style="text;html=1;strokeColor=none;fillColor=none;align=center;verticalAlign=middle;whiteSpace=wrap;rounded=0;" vertex="1" parent="WIyWlLk6GJQsqaUBKTNV-1">
          <mxGeometry x="460" y="460" width="60" height="30" as="geometry" />
        </mxCell>
        <mxCell id="TI4QEEks9tS9gaaD0Dst-113" value="input &#39;x&#39; or&lt;br&gt;&#39;o&#39; on square" style="rounded=1;whiteSpace=wrap;html=1;absoluteArcSize=1;arcSize=14;strokeWidth=2;" vertex="1" parent="WIyWlLk6GJQsqaUBKTNV-1">
          <mxGeometry x="460" y="677" width="80" height="70" as="geometry" />
        </mxCell>
        <mxCell id="TI4QEEks9tS9gaaD0Dst-114" value="" style="endArrow=classic;html=1;rounded=0;exitX=1;exitY=0.5;exitDx=0;exitDy=0;entryX=0.5;entryY=1;entryDx=0;entryDy=0;entryPerimeter=0;" edge="1" parent="WIyWlLk6GJQsqaUBKTNV-1" source="TI4QEEks9tS9gaaD0Dst-113" target="TI4QEEks9tS9gaaD0Dst-75">
          <mxGeometry width="50" height="50" relative="1" as="geometry">
            <mxPoint x="480" y="810" as="sourcePoint" />
            <mxPoint x="560" y="712" as="targetPoint" />
          </mxGeometry>
        </mxCell>
        <mxCell id="TI4QEEks9tS9gaaD0Dst-118" value="" style="edgeStyle=orthogonalEdgeStyle;rounded=0;orthogonalLoop=1;jettySize=auto;html=1;entryX=0;entryY=0.5;entryDx=0;entryDy=0;entryPerimeter=0;" edge="1" parent="WIyWlLk6GJQsqaUBKTNV-1" source="TI4QEEks9tS9gaaD0Dst-115" target="TI4QEEks9tS9gaaD0Dst-102">
          <mxGeometry relative="1" as="geometry">
            <mxPoint x="474" y="370.5" as="targetPoint" />
          </mxGeometry>
        </mxCell>
        <mxCell id="TI4QEEks9tS9gaaD0Dst-115" value="output draw&lt;br&gt;and thanks" style="rounded=1;whiteSpace=wrap;html=1;absoluteArcSize=1;arcSize=14;strokeWidth=2;" vertex="1" parent="WIyWlLk6GJQsqaUBKTNV-1">
          <mxGeometry x="510" y="350" width="100" height="41" as="geometry" />
        </mxCell>
        <mxCell id="TI4QEEks9tS9gaaD0Dst-129" value="Yes" style="text;html=1;strokeColor=none;fillColor=none;align=center;verticalAlign=middle;whiteSpace=wrap;rounded=0;" vertex="1" parent="WIyWlLk6GJQsqaUBKTNV-1">
          <mxGeometry x="194.5" y="261" width="60" height="30" as="geometry" />
        </mxCell>
        <mxCell id="TI4QEEks9tS9gaaD0Dst-132" value="Yes" style="text;html=1;strokeColor=none;fillColor=none;align=center;verticalAlign=middle;whiteSpace=wrap;rounded=0;" vertex="1" parent="WIyWlLk6GJQsqaUBKTNV-1">
          <mxGeometry x="500" y="400" width="60" height="30" as="geometry" />
        </mxCell>
        <mxCell id="BwXsAqAlFmVmbOzfPT53-1" value="Yes" style="text;html=1;strokeColor=none;fillColor=none;align=center;verticalAlign=middle;whiteSpace=wrap;rounded=0;" vertex="1" parent="WIyWlLk6GJQsqaUBKTNV-1">
          <mxGeometry x="185" y="530" width="60" height="30" as="geometry" />
        </mxCell>
      </root>
    </mxGraphModel>
  </diagram>
</mxfile>
